<?xml version="1.0" standalone="no"?>
<!DOCTYPE svg PUBLIC "-//W3C//DTD SVG 20010904//EN"
 "http://www.w3.org/TR/2001/REC-SVG-20010904/DTD/svg10.dtd">
<svg version="1.0" xmlns="http://www.w3.org/2000/svg"
 width="416.000000pt" height="416.000000pt" viewBox="0 0 416.000000 416.000000"
 preserveAspectRatio="xMidYMid meet">
<metadata>
Created by potrace 1.16, written by Peter Selinger 2001-2019
</metadata>
<g transform="translate(0.000000,416.000000) scale(0.100000,-0.100000)"
fill="#000000" stroke="none">
<path d="M1455 3116 c-54 -24 -55 -29 -55 -506 l0 -439 -25 -25 c-23 -23 -25
-32 -25 -126 0 -82 3 -100 15 -100 13 0 15 -22 14 -142 0 -98 -3 -136 -10
-120 -8 22 -12 23 -71 16 -77 -8 -96 -17 -104 -49 -14 -57 37 -136 129 -199
l57 -40 0 -72 c0 -63 3 -77 24 -101 l24 -28 167 -3 c160 -3 166 -4 174 -25 6
-15 2 -30 -12 -49 -17 -23 -18 -30 -7 -43 12 -14 32 -16 121 -13 125 4 144 14
155 84 l6 44 48 0 48 0 6 -44 c11 -70 30 -80 155 -84 89 -3 109 -1 121 13 11
13 10 20 -7 43 -14 19 -18 34 -12 49 8 21 14 22 174 25 l167 3 24 28 c21 24
24 38 24 100 l0 72 65 47 c71 52 125 125 125 170 0 36 -32 68 -67 68 -16 0
-44 3 -64 6 -30 5 -37 3 -46 -18 -9 -18 -12 6 -12 120 -1 120 1 142 14 142 12
0 15 18 15 100 0 94 -2 103 -25 126 l-25 25 0 440 c0 477 -1 482 -55 507 -40
18 -1208 16 -1250 -2z m1250 -41 l25 -24 0 -446 0 -445 -25 0 -24 0 -3 153 -3
152 -285 0 -285 0 -3 -152 c-2 -144 -4 -153 -22 -153 -18 0 -20 9 -22 153 l-3
152 -285 0 -285 0 -3 -152 -3 -153 -24 0 -25 0 0 445 0 446 25 24 24 25 601 0
601 0 24 -25z m-665 -770 l0 -145 -265 0 -265 0 0 145 0 145 265 0 265 0 0
-145z m610 0 l0 -145 -265 0 -265 0 0 145 0 145 265 0 265 0 0 -145z m113
-177 c12 -10 17 -34 19 -96 3 -82 3 -82 -22 -82 -14 0 -176 12 -360 26 l-335
27 -342 -29 -343 -29 0 87 c0 72 3 89 18 97 27 16 1343 15 1365 -1z m-603
-192 c36 -3 133 -10 215 -16 83 -5 197 -15 254 -20 58 -5 107 -8 109 -5 13 13
-19 21 -131 32 l-122 12 105 -5 c58 -3 117 -7 133 -10 l27 -6 0 -318 0 -318
-27 -6 c-16 -4 -306 -8 -646 -11 -339 -2 -622 -7 -629 -11 -6 -4 -8 -3 -5 3 4
6 0 13 -8 17 -18 6 -19 1 -4 -25 7 -14 16 -18 27 -14 14 5 15 4 4 -7 -11 -11
-17 -9 -33 11 -18 22 -19 42 -19 344 0 293 1 319 16 301 8 -10 13 -13 9 -6 -4
8 4 12 27 12 105 2 591 49 600 58 7 7 16 8 22 3 6 -5 40 -11 76 -15z"/>
<path d="M1492 3028 c-16 -16 -17 -490 -2 -519 10 -18 24 -19 280 -19 258 0
270 1 280 20 7 12 9 109 8 272 l-3 253 -275 3 c-206 2 -279 -1 -288 -10z m546
-232 l2 -216 -265 0 -265 0 0 218 0 217 263 -2 262 -2 3 -215z"/>
<path d="M2107 3033 c-13 -12 -8 -518 5 -531 9 -9 85 -12 280 -12 254 0 268 1
278 19 15 29 14 503 -2 519 -9 9 -86 12 -283 12 -150 0 -275 -3 -278 -7z m543
-235 l0 -218 -265 0 -265 0 0 213 c0 118 2 216 4 218 2 2 122 4 265 4 l261 0
0 -217z"/>
<path d="M1629 1697 c-21 -16 -39 -51 -39 -77 0 -30 53 -80 85 -80 38 0 85 50
85 90 0 61 -83 104 -131 67z"/>
<path d="M2444 1698 c-24 -11 -44 -48 -44 -79 0 -11 13 -34 29 -50 25 -24 36
-28 76 -27 26 2 42 4 36 6 -7 2 -3 14 9 29 56 71 -23 161 -106 121z"/>
</g>
</svg>
